<svg width="49" height="49" viewBox="0 0 49 49" fill="none" xmlns="http://www.w3.org/2000/svg">
<path fill-rule="evenodd" clip-rule="evenodd" d="M30.6551 34.9434H6.48244V0.657715H40.388C39.6976 1.55257 39.2455 2.61949 38.9434 3.6193C38.5943 4.77472 38.4232 5.91601 38.3383 6.75894C38.2956 7.18292 38.2741 7.53741 38.2633 7.78823C38.2579 7.91376 38.2551 8.01368 38.2537 8.08374C38.253 8.11879 38.2526 8.14639 38.2524 8.16603L38.2523 8.18946L38.2522 8.19658L38.2522 8.19897V8.19987C38.2522 8.19987 38.2522 8.20057 39.2882 8.20057H38.2522V42.8291C38.2522 46.0482 35.6239 48.6577 32.3817 48.6577H31.1488C31.1195 48.6197 31.0885 48.5788 31.0558 48.535C30.8185 48.2171 30.4995 47.7534 30.1805 47.1804C29.5357 46.0219 28.9285 44.4832 28.9285 42.8291C28.9285 41.175 29.5357 39.6364 30.1805 38.4779C30.4995 37.9048 30.8185 37.4412 31.0558 37.1233C31.1742 36.9647 31.2714 36.8434 31.3371 36.764C31.3699 36.7244 31.3947 36.6952 31.4103 36.6772L31.4264 36.6587L31.4277 36.6573L31.4284 36.6565L31.4288 36.656C31.7 36.3536 31.7673 35.9214 31.6007 35.5518C31.4338 35.1817 31.0635 34.9434 30.6551 34.9434ZM12.3529 8.54343C11.7808 8.54343 11.317 9.00394 11.317 9.572C11.317 10.1401 11.7808 10.6006 12.3529 10.6006H32.0364C32.6085 10.6006 33.0724 10.1401 33.0724 9.572C33.0724 9.00394 32.6085 8.54343 32.0364 8.54343H12.3529ZM12.3529 17.1149C11.7808 17.1149 11.317 17.5754 11.317 18.1434C11.317 18.7115 11.7808 19.172 12.3529 19.172H32.0364C32.6085 19.172 33.0724 18.7115 33.0724 18.1434C33.0724 17.5754 32.6085 17.1149 32.0364 17.1149H12.3529ZM12.3529 25.6863C11.7808 25.6863 11.317 26.1468 11.317 26.7149C11.317 27.2829 11.7808 27.7434 12.3529 27.7434H32.0364C32.6085 27.7434 33.0724 27.2829 33.0724 26.7149C33.0724 26.1468 32.6085 25.6863 32.0364 25.6863H12.3529Z" fill="#B1B8D1"/>
<path d="M40.4 6.96363C40.3927 7.03547 40.3862 7.105 40.3803 7.172H44.4681C45.0402 7.172 45.504 7.63251 45.504 8.20057V11.1567C47.2913 10.6999 48.6119 9.08909 48.6119 7.172V4.772C48.6119 2.49974 46.7567 0.657715 44.4681 0.657715C43.5041 0.657715 42.8019 1.04049 42.2435 1.65651C41.6584 2.30198 41.2296 3.21221 40.928 4.21042C40.6296 5.19785 40.4769 6.19942 40.4 6.96363Z" fill="#B1B8D1"/>
<path d="M43.4321 9.22914V11.2863H40.3242V9.22914H43.4321Z" fill="#B1B8D1"/>
<path d="M28.3671 48.1754C28.4612 48.3445 28.5554 48.5055 28.648 48.6577H5.44647C2.77643 48.6577 0.611938 46.5087 0.611938 43.8577V41.8006C0.611938 39.1496 2.77643 37.0006 5.44647 37.0006H28.648C28.5554 37.1528 28.4612 37.3138 28.3671 37.4829C27.6306 38.8062 26.8565 40.6962 26.8565 42.8291C26.8565 44.9621 27.6306 46.8521 28.3671 48.1754Z" fill="#B1B8D1"/>
</svg>
