<svg width="49" height="49" viewBox="0 0 49 49" fill="none" xmlns="http://www.w3.org/2000/svg">
<path d="M23.0548 48.6577V34.3598C21.5349 32.3802 20.7025 29.8841 20.7025 27.3063V8.31865C20.7025 7.47184 21.3344 6.78537 22.1139 6.78537C22.8933 6.78537 23.5252 7.47185 23.5252 8.31865V15.4655C23.5252 15.8889 23.8412 16.2322 24.2309 16.2322C24.6206 16.2322 24.9366 15.8889 24.9366 15.4655V5.67318C24.9366 4.87734 25.5304 4.23218 26.263 4.23218C26.9956 4.23218 27.5894 4.87734 27.5894 5.67318V15.7211C27.5894 16.0034 27.8 16.2322 28.0599 16.2322C28.3197 16.2322 28.5303 16.0034 28.5303 15.7211V2.44653C28.5303 1.4586 29.2675 0.657715 30.1769 0.657715C31.0863 0.657715 31.8235 1.4586 31.8235 2.44653V15.4655C31.8235 15.8889 32.1394 16.2322 32.5291 16.2322C32.9189 16.2322 33.2348 15.8889 33.2348 15.4655V5.76546C33.2348 4.91865 33.8667 4.23218 34.6462 4.23218C35.4257 4.23218 36.0575 4.91865 36.0575 5.76546V22.1045L39.7627 17.2785C40.318 16.5553 41.3036 16.4471 41.9807 17.0351C42.6232 17.5929 42.7691 18.5903 42.3176 19.3371L33.2348 34.3598V48.6577H23.0548Z" fill="#B1B8D1"/>
<path d="M15.1131 48.6577V38.0897C16.2419 36.6269 16.8605 34.779 16.8605 32.8702V18.8476C16.8605 18.2185 16.3911 17.7086 15.8121 17.7086C15.233 17.7086 14.7636 18.2185 14.7636 18.8476V24.1215C14.7636 24.436 14.5289 24.691 14.2394 24.691C13.9499 24.691 13.7152 24.436 13.7152 24.1215V16.8919C13.7152 16.3007 13.274 15.8215 12.7299 15.8215C12.1857 15.8215 11.7445 16.3007 11.7445 16.8919V24.3113C11.7445 24.521 11.5881 24.691 11.395 24.691C11.202 24.691 11.0456 24.521 11.0456 24.3113V14.5083C11.0456 13.7744 10.4979 13.1795 9.82239 13.1795C9.14685 13.1795 8.59921 13.7744 8.59921 14.5083V24.1215C8.59921 24.436 8.36451 24.691 8.075 24.691C7.78548 24.691 7.55078 24.436 7.55078 24.1215V16.9605C7.55078 16.3314 7.08138 15.8215 6.50234 15.8215C5.92331 15.8215 5.45391 16.3314 5.45391 16.9605V29.0314L2.69873 25.4608C2.28721 24.9275 1.55941 24.8476 1.05805 25.2808C0.579019 25.6947 0.470267 26.4375 0.807458 26.9924L7.55078 38.0897V48.6577H15.1131Z" fill="#B1B8D1"/>
<path d="M39.1341 43.2109V48.6577H44.0787V43.2109L48.4825 36.0389C48.7054 35.6759 48.6339 35.1878 48.3182 34.9179C47.9927 34.6395 47.5227 34.6911 47.2549 35.0345L45.4498 37.3497V29.5468C45.4498 29.1355 45.1429 28.802 44.7643 28.802C44.3857 28.802 44.0787 29.1355 44.0787 29.5468V34.1688C44.0787 34.3744 43.9253 34.5412 43.736 34.5412C43.5467 34.5412 43.3932 34.3744 43.3932 34.1688V27.9614C43.3932 27.4815 43.0352 27.0925 42.5935 27.0925C42.1518 27.0925 41.7937 27.4815 41.7937 27.9614V34.2929C41.7937 34.43 41.6914 34.5412 41.5652 34.5412C41.439 34.5412 41.3367 34.43 41.3367 34.2929V29.5019C41.3367 29.1154 41.0482 28.802 40.6924 28.802C40.3366 28.802 40.0482 29.1154 40.0482 29.5019V34.1688C40.0482 34.3744 39.8947 34.5412 39.7054 34.5412C39.5161 34.5412 39.3626 34.3744 39.3626 34.1688V30.7679C39.3626 30.3565 39.0557 30.0231 38.6771 30.0231C38.2985 30.0231 37.9916 30.3565 37.9916 30.7679V39.8252C37.9916 41.0651 38.3965 42.2648 39.1341 43.2109Z" fill="#B1B8D1"/>
</svg>
