<svg width="49" height="49" viewBox="0 0 49 49" fill="none" xmlns="http://www.w3.org/2000/svg">
<path d="M37.6119 21.1577C37.6119 28.6136 31.5678 34.6577 24.1119 34.6577C16.6561 34.6577 10.6119 28.6136 10.6119 21.1577C10.6119 13.7019 16.6561 7.65771 24.1119 7.65771C31.5678 7.65771 37.6119 13.7019 37.6119 21.1577Z" fill="#B1B8D1"/>
<path d="M34.0764 33.0308C31.3821 35.2944 27.9062 36.6577 24.1119 36.6577C20.3264 36.6577 16.8579 35.3007 14.1663 33.0466C13.0378 33.7671 11.9881 34.6095 11.0368 35.5608C9.31693 37.2807 7.95263 39.3225 7.02182 41.5697C6.09102 43.8168 5.61194 46.2253 5.61194 48.6576H42.6554C42.6554 46.2253 42.1763 43.8168 41.2455 41.5697C40.3147 39.3225 38.9504 37.2807 37.2305 35.5608C36.2723 34.6026 35.2142 33.7548 34.0764 33.0308Z" fill="#B1B8D1"/>
</svg>
